<svg width="16" height="20" viewBox="0 0 16 20" fill="none" xmlns="http://www.w3.org/2000/svg">
<path d="M11.566 9.021C12.6108 8.40066 13.4765 7.51964 14.0785 6.46418C14.6804 5.40873 14.998 4.21504 15 3V2H16V0H0V2H1V3C1.00203 4.21504 1.31957 5.40873 1.92153 6.46418C2.5235 7.51964 3.38924 8.40066 4.434 9.021C4.788 9.229 5 9.566 5 9.921V10.079C5 10.433 4.788 10.769 4.434 10.979C3.38924 11.5993 2.5235 12.4804 1.92153 13.5358C1.31957 14.5913 1.00203 15.785 1 17V18H0V20H16V18H15V17C14.9981 15.7852 14.6807 14.5917 14.0789 13.5364C13.4771 12.4811 12.6116 11.6002 11.567 10.98C11.212 10.77 11 10.433 11 10.079V9.921C11 9.566 11.212 9.229 11.566 9.021ZM13 17V18H3V17C3.00131 16.1326 3.22777 15.2805 3.65723 14.5269C4.08669 13.7734 4.70443 13.1442 5.45 12.701C6.1025 12.3208 6.59442 11.7162 6.834 11H9.166C9.396 11.691 9.87 12.3 10.551 12.702C11.2964 13.1451 11.9139 13.7741 12.3432 14.5275C12.7725 15.2809 12.9988 16.1329 13 17V17Z" fill="#E25F5F"/>
</svg>
