<svg id="visual" viewBox="0 0 900 600" width="900" height="600" xmlns="http://www.w3.org/2000/svg" xmlns:xlink="http://www.w3.org/1999/xlink" version="1.1"><path d="M0 567L8.3 568C16.7 569 33.3 571 50 570.7C66.7 570.3 83.3 567.7 100 567.2C116.7 566.7 133.3 568.3 150 569.3C166.7 570.3 183.3 570.7 200 571.5C216.7 572.3 233.3 573.7 250 572.7C266.7 571.7 283.3 568.3 300 566.7C316.7 565 333.3 565 350 565.8C366.7 566.7 383.3 568.3 400 568.5C416.7 568.7 433.3 567.3 450 567.8C466.7 568.3 483.3 570.7 500 571.3C516.7 572 533.3 571 550 570.7C566.7 570.3 583.3 570.7 600 571.5C616.7 572.3 633.3 573.7 650 572.3C666.7 571 683.3 567 700 566C716.7 565 733.3 567 750 568.3C766.7 569.7 783.3 570.3 800 570C816.7 569.7 833.3 568.3 850 568.5C866.7 568.7 883.3 570.3 891.7 571.2L900 572L900 601L891.7 601C883.3 601 866.7 601 850 601C833.3 601 816.7 601 800 601C783.3 601 766.7 601 750 601C733.3 601 716.7 601 700 601C683.3 601 666.7 601 650 601C633.3 601 616.7 601 600 601C583.3 601 566.7 601 550 601C533.3 601 516.7 601 500 601C483.3 601 466.7 601 450 601C433.3 601 416.7 601 400 601C383.3 601 366.7 601 350 601C333.3 601 316.7 601 300 601C283.3 601 266.7 601 250 601C233.3 601 216.7 601 200 601C183.3 601 166.7 601 150 601C133.3 601 116.7 601 100 601C83.3 601 66.7 601 50 601C33.3 601 16.7 601 8.3 601L0 601Z" fill="#fff" stroke-linecap="round" stroke-linejoin="miter"></path></svg>