<svg width="1161" height="732" viewBox="0 0 1161 732" fill="none" xmlns="http://www.w3.org/2000/svg">
<path d="M0 0L6.20192 3.79999C12.4038 7.69999 24.8077 15.3 37.2115 18.7C49.6154 22 62.0192 21 74.6712 19.2C87.199 17.3 100.099 14.7 112.627 16.8C125.279 19 137.683 26 150.087 26.2C162.49 26.3 174.894 19.7 187.298 15.2C199.702 10.7 212.106 8.29999 224.51 6.79999C236.913 5.29999 249.317 4.70001 261.969 8.20001C274.497 11.7 287.397 19.3 299.925 21C312.577 22.7 324.981 18.3 337.385 16.2C349.788 14 362.192 14 374.596 17.2C387 20.3 399.404 26.7 411.808 27.5C424.212 28.3 436.615 23.7 449.267 22.8C461.795 22 474.695 25 487.223 24C499.875 23 512.279 18 524.683 19C537.087 20 549.49 27 561.894 28C574.298 29 586.702 24 599.106 19.2C611.51 14.3 623.913 9.69999 636.317 11.8C648.721 14 661.125 23 673.777 25.2C686.305 27.3 699.205 22.7 711.733 20C724.385 17.3 736.788 16.7 749.192 16.7C761.596 16.7 774 17.3 786.404 20.5C798.808 23.7 811.212 29.3 823.615 27.3C836.019 25.3 848.423 15.7 861.075 15.8C873.603 16 886.503 26 899.031 27C911.683 28 924.087 20 936.49 19.5C948.894 19 961.298 26 973.702 24.8C986.106 23.7 998.51 14.3 1010.91 14.3C1023.32 14.3 1035.72 23.7 1048.37 26C1060.9 28.3 1073.8 23.7 1086.33 18.2C1098.98 12.7 1111.38 6.30001 1123.79 5.20001C1136.19 4.00001 1148.6 8 1154.8 10L1161 12V50H1154.8C1148.6 50 1136.19 50 1123.79 50C1111.38 50 1098.98 50 1086.33 50C1073.8 50 1060.9 50 1048.37 50C1035.72 50 1023.32 50 1010.91 50C998.51 50 986.106 50 973.702 50C961.298 50 948.894 50 936.49 50C924.087 50 911.683 50 899.031 50C886.503 50 873.603 50 861.075 50C848.423 50 836.019 50 823.615 50C811.212 50 798.808 50 786.404 50C774 50 761.596 50 749.192 50C736.788 50 724.385 50 711.733 50C699.205 50 686.305 50 673.777 50C661.125 50 648.721 50 636.317 50C623.913 50 611.51 50 599.106 50C586.702 50 574.298 50 561.894 50C549.49 50 537.087 50 524.683 50C512.279 50 499.875 50 487.223 50C474.695 50 461.795 50 449.267 50C436.615 50 424.212 50 411.808 50C399.404 50 387 50 374.596 50C362.192 50 349.788 50 337.385 50C324.981 50 312.577 50 299.925 50C287.397 50 274.497 50 261.969 50C249.317 50 236.913 50 224.51 50C212.106 50 199.702 50 187.298 50C174.894 50 162.49 50 150.087 50C137.683 50 125.279 50 112.627 50C100.099 50 87.199 50 74.6712 50C62.0192 50 49.6154 50 37.2115 50C24.8077 50 12.4038 50 6.20192 50H0V0Z" fill="white"/>
<path d="M0 50H1161V732H0V50Z" fill="white"/>
</svg>
