<svg width="900" height="36" viewBox="0 0 900 36" fill="none" xmlns="http://www.w3.org/2000/svg">
<path d="M0 1.71857L8.3 2.71857C16.7 3.71857 33.3 5.71858 50 5.41858C66.7 5.01858 83.3 2.41858 100 1.91858C116.7 1.41858 133.3 3.01856 150 4.01856C166.7 5.01856 183.3 5.41857 200 6.21857C216.7 7.01857 233.3 8.41858 250 7.41858C266.7 6.41858 283.3 3.01858 300 1.41858C316.7 -0.281419 333.3 -0.281444 350 0.518556C366.7 1.41856 383.3 3.01857 400 3.21857C416.7 3.41857 433.3 2.01856 450 2.51856C466.7 3.01856 483.3 5.41856 500 6.01856C516.7 6.71856 533.3 5.71858 550 5.41858C566.7 5.01858 583.3 5.41857 600 6.21857C616.7 7.01857 633.3 8.41856 650 7.01856C666.7 5.71856 683.3 1.71857 700 0.718569C716.7 -0.281431 733.3 1.71856 750 3.01856C766.7 4.41856 783.3 5.01857 800 4.71857C816.7 4.41857 833.3 3.01857 850 3.21857C866.7 3.41857 883.3 5.01858 891.7 5.91858L900 6.71857V35.7186H891.7C883.3 35.7186 866.7 35.7186 850 35.7186C833.3 35.7186 816.7 35.7186 800 35.7186C783.3 35.7186 766.7 35.7186 750 35.7186C733.3 35.7186 716.7 35.7186 700 35.7186C683.3 35.7186 666.7 35.7186 650 35.7186C633.3 35.7186 616.7 35.7186 600 35.7186C583.3 35.7186 566.7 35.7186 550 35.7186C533.3 35.7186 516.7 35.7186 500 35.7186C483.3 35.7186 466.7 35.7186 450 35.7186C433.3 35.7186 416.7 35.7186 400 35.7186C383.3 35.7186 366.7 35.7186 350 35.7186C333.3 35.7186 316.7 35.7186 300 35.7186C283.3 35.7186 266.7 35.7186 250 35.7186C233.3 35.7186 216.7 35.7186 200 35.7186C183.3 35.7186 166.7 35.7186 150 35.7186C133.3 35.7186 116.7 35.7186 100 35.7186C83.3 35.7186 66.7 35.7186 50 35.7186C33.3 35.7186 16.7 35.7186 8.3 35.7186H0V1.71857Z" fill="white"/>
</svg>
