<svg width="17" height="22" viewBox="0 0 17 22" fill="none" xmlns="http://www.w3.org/2000/svg">
<path d="M8.07 12.49C6.71 12.77 5.9 13.65 5.9 14.9C5.9 16.24 7.01 17.32 8.39 17.32C10.44 17.32 12.1 15.66 12.1 13.61C12.1 12.54 11.95 11.49 11.64 10.49C10.85 11.56 9.44 12.21 8.07 12.49ZM10 0C10 0 10.74 2.65 10.74 4.8C10.74 6.86 9.39 8.53 7.33 8.53C5.26 8.53 3.7 6.86 3.7 4.8L3.73 4.44C1.71 6.84 0.5 9.95 0.5 13.33C0.5 17.75 4.08 21.33 8.5 21.33C12.92 21.33 16.5 17.75 16.5 13.33C16.5 7.94 13.91 3.13 10 0ZM8.5 19.33C5.19 19.33 2.5 16.64 2.5 13.33C2.5 11.8 2.8 10.29 3.36 8.9C4.37 9.91 5.77 10.53 7.33 10.53C9.99 10.53 12.08 8.7 12.61 6.1C13.84 8.3 14.5 10.77 14.5 13.33C14.5 16.64 11.81 19.33 8.5 19.33Z" fill="black" fill-opacity="0.54"/>
</svg>
